<svg xmlns="http://www.w3.org/2000/svg"  width="20" height="20" viewBox="0 0 24 24">
    <path  fill="#A39135"  d="M 6 2 C 4.897 2 4 2.897 4 4 L 4 8 C 2.895 8 2 8.896 2 10 L 2 15 C 2 16.104 2.895 17 4 17 L 4 20 C 4 21.103 4.897 22 6 22 L 18 22 C 19.103 22 20 21.103 20 20 L 20 4 C 20 2.897 19.103 2 18 2 L 6 2 z M 6 4 L 18 4 L 18 10 C 18 8.896 17.104 8 16 8 L 6 8 L 6 4 z M 5.71875 10.03125 C 7.20275 10.03125 7.36825 11.199 7.40625 11.75 L 6.40625 11.75 C 6.40625 11.345 6.38375 10.84375 5.71875 10.84375 C 5.45675 10.84375 4.96875 10.81275 4.96875 12.09375 L 4.96875 12.9375 C 4.96775 13.8645 5.1465 14.1875 5.6875 14.1875 C 6.2575 14.1875 6.40625 13.8335 6.40625 13.3125 L 7.40625 13.3125 C 7.38225 13.8655 7.1695 15 5.6875 15 C 3.9875 15 3.96875 13.2735 3.96875 12.9375 L 3.96875 12.09375 C 3.96875 11.24575 4.28275 10.03125 5.71875 10.03125 z M 9.8125 10.03125 C 11.2705 10.03125 11.34375 11.31225 11.34375 11.53125 L 10.34375 11.53125 C 10.34375 11.42925 10.31325 10.8125 9.78125 10.8125 C 9.24825 10.8125 9.21875 11.297 9.21875 11.375 C 9.21675 12.22 11.34375 12.00025 11.34375 13.65625 C 11.34375 13.86925 11.2805 15 9.8125 15 C 8.2065 15 8.125 13.68025 8.125 13.40625 L 9.125 13.40625 C 9.125 13.55225 9.0565 14.21875 9.8125 14.21875 C 9.9075 14.21875 10.34375 14.16925 10.34375 13.65625 C 10.34375 12.58725 8.25 13.033 8.25 11.375 C 8.25 11.174 8.4125 10.03125 9.8125 10.03125 z M 12.03125 10.09375 L 13.125 10.09375 L 13.9375 13.59375 L 14.78125 10.09375 L 15.875 10.09375 L 14.46875 14.9375 L 13.4375 14.9375 L 12.03125 10.09375 z M 18 15 L 18 20 L 6 20 L 6 17 L 16 17 C 17.104 17 18 16.104 18 15 z"/>
</svg>