<svg xmlns="http://www.w3.org/2000/svg" width="20" height="20" viewBox="0 0 24 24">
    <path fill="#A39135" d="M 6 2 C 5.5 2 4.89375 2.19375 4.59375 2.59375 C 4.19375 2.89375 4 3.5 4 4 L 4 8 C 2.9 8 2 8.9 2 10 L 2 15 C 2 16.1 2.9 17 4 17 L 4 20 C 4 20.5 4.19375 21.10625 4.59375 21.40625 C 4.89375 21.80625 5.5 22 6 22 L 18 22 C 18.5 22 19.10625 21.80625 19.40625 21.40625 C 19.80625 21.00625 20 20.5 20 20 L 20 17 C 21.1 17 22 16.1 22 15 L 22 10 C 22 8.9 21.1 8 20 8 L 20 4 C 20 3.5 19.80625 2.89375 19.40625 2.59375 C 19.10625 2.19375 18.5 2 18 2 L 6 2 z M 6 4 L 18 4 L 18 8 L 6 8 L 6 4 z M 5.6875 10 L 6.6875 10 L 6.6875 13.40625 L 6.6875 14.09375 C 6.6875 14.19375 6.69375 14.30625 6.59375 14.40625 C 6.49375 14.60625 6.29375 14.7125 6.09375 14.8125 C 5.89375 15.0125 5.6125 15 5.3125 15 C 4.9125 15 4.5125 14.8875 4.3125 14.6875 C 4.1125 14.4875 4 14.2125 4 13.8125 L 4 13.3125 L 4.90625 13.3125 L 4.90625 13.90625 C 4.90625 14.00625 4.9 14.0875 5 14.1875 C 5.1 14.2875 5.1125 14.3125 5.3125 14.3125 C 5.4125 14.3125 5.49375 14.2875 5.59375 14.1875 C 5.59375 14.0875 5.6875 13.9875 5.6875 13.6875 L 5.6875 13.5 L 5.6875 10 z M 9.3125 10 C 9.8125 10 10.2 10.10625 10.5 10.40625 C 10.8 10.60625 10.90625 11.00625 10.90625 11.40625 L 10.90625 11.5 L 10.90625 11.59375 L 9.90625 11.59375 L 9.90625 11.5 C 9.90625 11.2 9.9125 11.10625 9.8125 10.90625 C 9.7125 10.70625 9.5125 10.6875 9.3125 10.6875 C 9.1125 10.6875 9.00625 10.7125 8.90625 10.8125 C 8.80625 10.9125 8.8125 10.99375 8.8125 11.09375 C 8.8125 11.29375 9.00625 11.5125 9.40625 11.8125 L 10 12.09375 C 10.4 12.29375 10.7125 12.5125 10.8125 12.8125 C 10.9125 13.0125 11 13.29375 11 13.59375 C 11 13.99375 10.89375 14.39375 10.59375 14.59375 C 10.29375 14.79375 9.90625 15 9.40625 15 C 8.90625 15 8.3875 14.89375 8.1875 14.59375 C 7.8875 14.39375 7.8125 14 7.8125 13.5 L 7.8125 13.1875 L 8.8125 13.1875 L 8.8125 13.5 C 8.8125 13.8 8.80625 13.99375 8.90625 14.09375 C 9.00625 14.19375 9.1125 14.3125 9.3125 14.3125 C 9.5125 14.3125 9.7125 14.2875 9.8125 14.1875 C 9.9125 13.9875 10 13.8875 10 13.6875 C 10 13.5875 10.00625 13.4125 9.90625 13.3125 C 9.80625 13.2125 9.70625 13.10625 9.40625 12.90625 L 8.90625 12.59375 C 8.40625 12.39375 8.1 12.1 8 12 C 7.9 11.8 7.8125 11.6125 7.8125 11.3125 C 7.8125 10.9125 7.8875 10.60625 8.1875 10.40625 C 8.4875 10.10625 8.9125 10 9.3125 10 z M 13.1875 10 C 13.325 9.9875 13.4875 10 13.6875 10 C 14.0875 10 14.29375 9.99375 14.59375 10.09375 C 14.79375 10.19375 14.9875 10.29375 15.1875 10.59375 C 15.2875 10.79375 15.4 11.0125 15.5 11.3125 C 15.6 11.6125 15.40625 12 15.40625 12.5 C 15.40625 13 15.4125 13.3875 15.3125 13.6875 C 15.2125 13.9875 15.2 14.20625 15 14.40625 C 14.8 14.60625 14.70625 14.80625 14.40625 14.90625 C 14.30625 14.90625 13.9875 15 13.6875 15 C 13.2875 15 13.1125 15.00625 12.8125 14.90625 C 12.6125 14.80625 12.3875 14.70625 12.1875 14.40625 C 12.0875 14.20625 12 13.9875 12 13.6875 C 11.9 13.3875 11.90625 13 11.90625 12.5 C 11.90625 12 11.9 11.6125 12 11.3125 C 12.1 11.0125 12.1125 10.79375 12.3125 10.59375 C 12.5125 10.39375 12.60625 10.19375 12.90625 10.09375 C 12.95625 10.04375 13.05 10.0125 13.1875 10 z M 16.40625 10 L 17.5 10 L 19 13.5 L 19 10 L 20 10 L 20 15 L 18.90625 15 L 17.40625 11.5 L 17.40625 15 L 16.40625 15 L 16.40625 10 z M 13.6875 10.6875 C 13.3875 10.6875 13.19375 10.8 13.09375 11 C 12.99375 11.2 12.90625 11.7 12.90625 12.5 C 12.90625 13.3 12.99375 13.8 13.09375 14 C 13.19375 14.2 13.3875 14.3125 13.6875 14.3125 C 13.9875 14.3125 14.2125 14.2 14.3125 14 C 14.4125 13.8 14.5 13.3 14.5 12.5 C 14.5 11.7 14.4125 11.2 14.3125 11 C 14.1125 10.8 13.8875 10.6875 13.6875 10.6875 z M 6 17 L 18 17 L 18 20 L 6 20 L 6 17 z"/>
</svg>