<svg width="17" height="16" viewBox="0 0 17 16" fill="none" xmlns="http://www.w3.org/2000/svg">
<g opacity="1">
<path fill-rule="evenodd" clip-rule="evenodd" d="M11.1437 4.57251C14.1256 4.57251 16.5428 6.78113 16.5428 9.50561V15.2609H12.9434V9.50561C12.9434 8.59745 12.1377 7.86124 11.1437 7.86124C10.1498 7.86124 9.34403 8.59745 9.34403 9.50561V15.2609H5.74463V9.50561C5.74463 6.78113 8.16189 4.57251 11.1437 4.57251Z" fill="#3695FF"/>
<rect y="5.14233" width="3.37444" height="10.1185" fill="#3695FF"/>
<path fill-rule="evenodd" clip-rule="evenodd" d="M1.68722 2.86271C2.61904 2.86271 3.37444 2.22482 3.37444 1.43795C3.37444 0.651071 2.61904 0.0131836 1.68722 0.0131836C0.755393 0.0131836 0 0.651071 0 1.43795C0 2.22482 0.755393 2.86271 1.68722 2.86271Z" fill="#3695FF"/>
</g>
</svg>
